<svg fill="#F26722" viewBox="0 0 24 24" xmlns="http://www.w3.org/2000/svg"><path d="M14.399 23.76a12 12 0 009.192-8.655C25.306 8.703 21.507 2.123 15.106.408 8.704-1.307 2.124 2.492.409 8.893c-1.715 6.402 2.084 12.982 8.485 14.697 1.847.495 3.71.531 5.465.178l.02.016zM2.734 8.236a9.936 9.936 0 012.28-3.395A4.99 4.99 0 005.8 7.212a5.474 5.474 0 001.792 1.71 29.632 29.632 0 00-.717 2.332 19.1 19.1 0 01-2.086-1.088c-.863-.528-1.44-1.012-1.767-1.408-.286-.347-.287-.507-.287-.522zm4.432-4.978l-.016-.004a9.995 9.995 0 014.365-1.246c-.36.363-.711.78-1.05 1.24-.776 1.053-1.498 2.344-2.125 3.774a3.381 3.381 0 01-.86-.895c-.423-.655-.66-1.578-.314-2.869zm1.775 8.018c.154-.544.323-1.079.504-1.598 1.097.302 2.088.377 3.017.285 1.138-.113 2.131-.47 3.048-.878.439-.195.855-.397 1.264-.595 1.241-.6 2.413-1.167 3.93-1.415a9.97 9.97 0 011.202 6.3c-.01.018-.097.153-.509.307-.48.18-1.222.31-2.234.336-2.012.051-4.685-.32-7.422-1.053-1.044-.28-2.053-.6-2.998-.948.062-.246.128-.493.198-.74zm6.807-4.516c-.367.179-.716.349-1.05.497-.828.368-1.598.632-2.433.715a6.058 6.058 0 01-2.084-.169c.574-1.302 1.22-2.455 1.893-3.368.614-.834 1.193-1.39 1.688-1.703.496-.315.814-.33.991-.286l.015-.056a9.95 9.95 0 014.66 2.912c-1.427.362-2.628.946-3.68 1.458zM2.734 8.236l-.003.008.003-.008zm.903 9.246c.735-.422 1.586-.54 2.368-.46-.015.644.003 1.26.056 1.84.043.467.109.912.2 1.33a9.997 9.997 0 01-2.624-2.71zm-.925-1.777a9.948 9.948 0 01-.623-5.042c.457.414 1.017.819 1.655 1.209.781.478 1.688.94 2.681 1.37-.113.604-.205 1.201-.274 1.786-1.074-.1-2.318.057-3.44.677zM8 17.493c1.572.542 2.407 1.33 3.067 2.18.3.386.539.748.8 1.145.17.257.35.53.561.83.077.11.156.22.238.332a9.988 9.988 0 01-3.378-.356l.001-.004c-.17-.043-.424-.198-.68-.69-.257-.494-.464-1.241-.557-2.251-.034-.374-.051-.771-.052-1.186zm6.916 4.073a9.536 9.536 0 01-.85-1.065c-.144-.206-.298-.439-.46-.683-.3-.45-.625-.94-.959-1.37-.97-1.251-2.247-2.35-4.53-3.015.052-.469.12-.95.205-1.441.93.334 1.906.638 2.902.905 2.86.767 5.732 1.178 7.99 1.12.748-.019 1.435-.09 2.038-.219a10.001 10.001 0 01-6.336 5.768z" fill=""></path></svg>
