<svg fill="#F26722" xmlns="http://www.w3.org/2000/svg" viewBox="0 0 24 24"><path fill="" d="M5.535 4.121l.088.087.17.154c.884.73 2.185.848 3.411.32a1 1 0 011.103.21l12.4 12.401.066.073A1 1 0 0123 18v.586A4.414 4.414 0 0118.586 23H18a1 1 0 01-.707-.293l-12.4-12.4a1 1 0 01-.211-1.103c.564-1.307.392-2.701-.474-3.581l-.087-.088L.293 1.707 1.707.293l3.828 3.828zm3.807 2.634c-.77.232-1.588.31-2.383.203a5.692 5.692 0 01-.203 2.383L18.414 21h.172A2.414 2.414 0 0021 18.586v-.172L9.342 6.754zM19.5 3a3.5 3.5 0 110 7 3.5 3.5 0 010-7zm0 2a1.5 1.5 0 100 3 1.5 1.5 0 000-3z"></path></svg>
