<svg fill="#F26722" xmlns="http://www.w3.org/2000/svg" viewBox="0 0 24 24"><path fill="" d="M5.874 6.188l3.153.788a3.5 3.5 0 114.92.024h.348c.27 0 .54.055.788.162l2.943 1.26c.472.203.849.58 1.051 1.052l1.736 4.051-1.838.788-1.737-4.051L14.295 9h-.287a13.997 13.997 0 003.237 8.632l4.163 4.996-1.536 1.28-4.164-4.996A16.001 16.001 0 0112 8.67v-.705a3.486 3.486 0 01-2-.3v1.283a9 9 0 00.727 3.546l.958 2.236L8 18.413V24H6v-5.586A2 2 0 016.586 17l2.728-2.729-.424-.99A11 11 0 018 8.946V8.78l-2.611-.652A2 2 0 013.903 6.53L2.843.437l1.97-.343 1.061 6.093zM11.5 3a1.5 1.5 0 100 3 1.5 1.5 0 000-3z"></path></svg>
