<svg fill="#F26722" xmlns="http://www.w3.org/2000/svg" viewBox="0 0 24 24"><path fill="" d="M19.5 16a3.5 3.5 0 110 7 3.5 3.5 0 010-7zm0 2a1.5 1.5 0 100 3 1.5 1.5 0 000-3zm-4.75-7.84a1 1 0 110 2.001 1 1 0 010-2zm-3-1a1 1 0 110 2.001 1 1 0 010-2zm5-1a1 1 0 110 2.001 1 1 0 010-2zm-3-1a1 1 0 110 2.001 1 1 0 010-2zm-3-1a1 1 0 110 2.001 1 1 0 010-2zm5-1a1 1 0 110 2.001 1 1 0 010-2zm-3-1a1 1 0 110 2.001 1 1 0 010-2z"></path><path fill="" d="M9.101 1.894C7.134 3.86 6.371 6.277 6.098 8.455a14.093 14.093 0 00-.1 2.139h-.001c.024.905-.252 1.726-.8 2.273l-3.176 3.176a2.71 2.71 0 01.524-1.85 4.711 4.711 0 00.138-5.421l-.55-.827-1.665 1.11.551.826a2.712 2.712 0 01-.08 3.12 4.711 4.711 0 00.451 6.14l.171.172.01.01 1.06 1.06a2 2 0 002.828 0l3.628-3.627c.548-.547 1.369-.824 2.273-.799.664.018 1.386-.007 2.14-.101 2.178-.274 4.595-1.036 6.562-3.003 1.476-1.477 2.065-3.254 1.832-5.078-.228-1.785-1.228-3.509-2.717-4.998C17.688 1.29 15.965.288 14.18.06c-1.824-.234-3.602.357-5.079 1.834zm-2.186 12.05c.301.424.671.795 1.095 1.096-.116.094-.23.194-.338.302L4.045 18.97l-1.06-1.06 3.627-3.629a4.19 4.19 0 00.303-.337zm7.01-11.9c1.22.156 2.558.868 3.838 2.148l.234.24c1.132 1.206 1.767 2.454 1.914 3.596.15 1.18-.202 2.35-1.263 3.41-1.547 1.548-3.485 2.193-5.399 2.433-.64.08-1.258.102-1.834.086a13.349 13.349 0 01-.91-.056 2.692 2.692 0 01-2.453-2.452 12.971 12.971 0 01-.055-.91c-.016-.576.005-1.195.086-1.835.225-1.793.807-3.607 2.153-5.101l.28-.295c1.06-1.061 2.23-1.415 3.41-1.264z"></path></svg>
