<svg xmlns="http://www.w3.org/2000/svg" fill="#F26722" viewBox="0 0 24 24"><path fill="" d="M12.5 0a3.5 3.5 0 012.51 5.936c.654 2.723.711 5.556.162 8.303l-.019.091 4.48 1.493A2 2 0 0121 17.721V24h-2v-6.28l-6.153-2.05.364-1.823a17.335 17.335 0 00-.026-6.915 3.513 3.513 0 01-1.665-.073 39.226 39.226 0 01-1.949 14.588l-.394 1.186A2 2 0 017.279 24H1v-2h6.28l.395-1.186a37.226 37.226 0 001.903-12.46L5.71 11.032 8.6 13.2l-1.2 1.6-2.89-2.167a2 2 0 01.061-3.245l5.25-3.635A3.5 3.5 0 0112.5 0zm0 2a1.5 1.5 0 100 3 1.5 1.5 0 000-3z"></path></svg>