<svg fill="#F26722" xmlns="http://www.w3.org/2000/svg" viewBox="0 0 24 24"><path fill="" d="M6.001 1.61c5.74-3.314 13.08-1.347 16.393 4.392 3.314 5.74 1.347 13.079-4.392 16.393-5.74 3.313-13.078 1.347-16.392-4.393S.262 4.923 6 1.61zm-.59 12.14c-.745.264-1.469.595-2.159.993l-.737.425A9.997 9.997 0 0012.287 22a12.927 12.927 0 01-5.598-5.198 13.016 13.016 0 01-1.278-3.05zm4.341-.748c-.81 0-1.617.077-2.408.226a10.999 10.999 0 008.726 7.909 10.124 10.124 0 001.867-1.089l-.187-.107a15 15 0 01-5.49-5.49l-.836-1.449H9.752zm10.764-6.237a12.926 12.926 0 01-1.702 7.438 13.017 13.017 0 01-2.005 2.632c.602.514 1.25.974 1.941 1.373l.736.425c2.776-3.132 3.384-7.807 1.176-11.63-.047-.081-.098-.16-.146-.238zm-4.514-3.71c0 2.633-.693 5.22-2.01 7.5l-.836 1.447.836 1.448c.405.702.875 1.361 1.4 1.971a10.971 10.971 0 002.486-11.51A9.988 9.988 0 0016 2.837v.218zm-5.5 3.947a10.974 10.974 0 00-8.444 3.951 9.984 9.984 0 00.006 2.167l.188-.108a15.002 15.002 0 017.5-2.01h1.673l.835-1.447c.406-.703.74-1.44 1.007-2.2a11 11 0 00-2.765-.353zm3.5-4.796a9.961 9.961 0 00-7 1.136 9.953 9.953 0 00-3.8 3.907 12.927 12.927 0 017.3-2.247c1.133 0 2.232.146 3.28.42.145-.778.22-1.57.22-2.367v-.849z"></path></svg>
